<svg width="420" height="432" viewBox="0 0 420 432" fill="none" xmlns="http://www.w3.org/2000/svg">
<g id="logo_svg_dourada">
<path d="M64.1227 123.366C84.7794 123.366 122.828 134.536 122.828 178.298C122.828 228.792 22.1463 240.982 22.1463 279.235C22.1463 293.924 38.8246 309.582 62.6946 309.582C84.0653 309.582 91.5629 295.403 91.5629 279.235C91.5629 267.555 97.5304 262.301 104.518 262.301C111.506 262.301 117.218 266.535 117.218 276.481C117.218 294.638 91.6139 313.051 63.5107 313.051C25.7166 313.051 8.06914 288.671 8.06914 264.801C8.06914 218.54 106.762 218.03 106.762 155.652C106.762 134.74 83.1472 126.783 64.2247 126.783C41.8339 126.783 24.4415 143.666 24.4415 155.652C24.4415 169.321 26.4306 171.82 26.4306 184.724C26.4306 190.437 22.1973 197.169 13.7306 197.169C5.77395 197.169 -0.703573 189.723 0.0614895 177.023C1.54061 149.174 28.8788 123.315 64.2247 123.315L64.1227 123.366Z" fill="url(#paint0_linear_16_8)"/>
<path d="M258.142 45.9932C264.518 65.6298 265.64 105.26 224.021 118.776C176.026 134.383 133.284 42.3719 96.8673 54.2048C82.8921 58.7442 73.1503 79.4009 80.5459 102.149C87.1765 122.499 102.937 125.203 118.289 120.204C129.408 116.583 136.191 120.663 138.385 127.294C140.578 133.924 138.283 140.657 128.847 143.717C111.607 149.328 86.1564 130.66 77.4857 103.934C65.8057 67.976 83.5042 43.647 106.201 36.3024C150.167 22.0212 181.177 115.716 240.546 96.4363C260.438 89.9588 260.693 65.0687 254.827 47.0643C247.891 25.7955 226.469 14.4726 215.095 18.1449C202.089 22.3783 200.355 25.0305 188.063 29.0088C182.605 30.7939 174.955 28.8558 172.302 20.7971C169.854 13.2485 174.955 4.78183 187.247 1.56857C214.177 -5.62302 247.228 12.3814 258.142 45.9932Z" fill="url(#paint1_linear_16_8)"/>
<path d="M391.671 206.656C374.993 218.795 337.607 232.107 311.901 196.71C282.217 155.856 356.53 86.8474 334.037 55.8369C325.417 43.9529 302.72 41.0967 283.441 55.1228C266.15 67.6698 268.445 83.5321 277.932 96.6402C284.818 106.076 283.033 113.829 277.422 117.909C271.812 121.989 264.671 121.938 258.857 113.88C248.197 99.1904 258.092 69.251 280.839 52.7256C311.391 30.4878 340.004 39.8216 354.03 59.1521C381.216 96.5892 301.649 154.989 338.321 205.483C350.613 222.365 374.381 214.919 389.682 203.8C407.789 190.641 411.92 166.72 404.933 157.08C396.874 146.012 393.814 145.196 386.214 134.689C382.848 130.048 382.338 122.142 389.172 117.195C395.599 112.502 405.239 114.747 412.073 125.458C427.221 148.868 420.336 185.846 391.722 206.605L391.671 206.656Z" fill="url(#paint2_linear_16_8)"/>
<path d="M280.176 383.284C263.498 371.145 239.271 339.726 264.977 304.33C294.661 263.475 383.256 312.847 405.799 281.837C414.419 269.953 410.135 247.511 390.855 233.485C373.565 220.938 359.182 227.976 349.695 241.084C342.809 250.52 334.904 251.234 329.293 247.154C323.683 243.074 321.541 236.29 327.355 228.231C338.015 213.542 369.535 213.695 392.283 230.221C422.835 252.458 422.835 282.551 408.809 301.83C381.623 339.267 301.445 281.633 264.773 332.127C252.481 349.009 266.915 369.36 282.216 380.479C300.323 393.638 324.346 390.17 331.333 380.479C339.392 369.411 339.239 366.249 346.839 355.793C350.205 351.151 357.55 348.244 364.384 353.192C370.811 357.884 371.678 367.677 363.619 377.521C346.023 399.197 308.739 404.043 280.176 383.284Z" fill="url(#paint3_linear_16_8)"/>
<path d="M77.6899 331.82C84.0654 312.184 106.456 279.49 148.076 293.006C196.071 308.613 176.536 408.123 212.953 419.956C226.928 424.495 246.973 413.478 254.317 390.781C260.948 370.43 249.727 358.955 234.375 353.956C223.256 350.335 220.144 343.041 222.287 336.411C224.429 329.78 230.243 325.649 239.679 328.709C256.918 334.32 266.507 364.361 257.837 391.087C246.157 427.045 217.543 436.277 194.846 428.932C150.881 414.651 180.871 320.599 121.553 301.32C101.662 294.842 86.8196 314.887 81.0052 332.84C74.0686 354.109 84.7795 375.888 96.1534 379.611C109.159 383.845 112.118 382.722 124.461 386.701C129.918 388.486 134.968 394.555 132.366 402.614C129.918 410.163 120.839 414.039 109.006 409.398C82.9943 399.401 66.826 365.381 77.7409 331.769L77.6899 331.82Z" fill="url(#paint4_linear_16_8)"/>
</g>
<defs>
<linearGradient id="paint0_linear_16_8" x1="74.2851" y1="396.903" x2="232.179" y2="283.83" gradientUnits="userSpaceOnUse">
<stop stop-color="#B7742D"/>
<stop offset="1" stop-color="#FBE7A1"/>
</linearGradient>
<linearGradient id="paint1_linear_16_8" x1="74.2851" y1="396.903" x2="232.179" y2="283.83" gradientUnits="userSpaceOnUse">
<stop stop-color="#B7742D"/>
<stop offset="1" stop-color="#FBE7A1"/>
</linearGradient>
<linearGradient id="paint2_linear_16_8" x1="74.2851" y1="396.903" x2="232.179" y2="283.83" gradientUnits="userSpaceOnUse">
<stop stop-color="#B7742D"/>
<stop offset="1" stop-color="#FBE7A1"/>
</linearGradient>
<linearGradient id="paint3_linear_16_8" x1="74.2851" y1="396.903" x2="232.179" y2="283.83" gradientUnits="userSpaceOnUse">
<stop stop-color="#B7742D"/>
<stop offset="1" stop-color="#FBE7A1"/>
</linearGradient>
<linearGradient id="paint4_linear_16_8" x1="74.2851" y1="396.903" x2="232.179" y2="283.83" gradientUnits="userSpaceOnUse">
<stop stop-color="#B7742D"/>
<stop offset="1" stop-color="#FBE7A1"/>
</linearGradient>
</defs>
</svg>
